<svg id="Layer_1" data-name="Layer 1" xmlns="http://www.w3.org/2000/svg" viewBox="0 0 382 133"><defs><style>.cls-1,.cls-11{fill:none;}.cls-1,.cls-11,.cls-12,.cls-3,.cls-4{stroke:#585a6d;stroke-width:0.8px;}.cls-1,.cls-11,.cls-12,.cls-3{stroke-linecap:round;stroke-linejoin:round;}.cls-2{fill:#9cbb8b;}.cls-10,.cls-3,.cls-4{fill:#fff;}.cls-4{stroke-miterlimit:10;}.cls-5{fill:#8cc04b;}.cls-6{fill:#c7053d;}.cls-7{fill:#1d1e1c;}.cls-8{fill:#fdc077;}.cls-9{fill:#585a6d;}.cls-11{stroke-dasharray:3.18993 4.25324;}.cls-12{fill:#65c8d0;}</style></defs><title>Artboard 2</title><polygon class="cls-1" points="278.566 65.857 272.653 65.857 272.653 102.519 277.383 102.519 277.383 107.25 330.604 107.25 330.604 65.857 278.566 65.857"/><path class="cls-2" d="M321.58714,78.4276l-7.57329-1.582-9.60263.69494s-.52934,15.17986.5275,16.10961c1.25724,1.10605,15.67614.541,15.67614.541S321.83491,92.13994,321.58714,78.4276Z"/><path class="cls-2" d="M291.54954,83.25276l-5.91876-.563-7.50476.24731s-.4137,5.40216.41226,5.733c.98257.39362,12.25139.19253,12.25139.19253S291.74318,88.13266,291.54954,83.25276Z"/><path class="cls-2" d="M294.068,71.26009l-6.643-.635-8.42309.279s-.46432,6.09328.4627,6.46648c1.10281.444,13.75055.21716,13.75055.21716S294.28534,76.7643,294.068,71.26009Z"/><polyline class="cls-3" points="265.557 59.888 272.653 59.888 272.653 115.584"/><path class="cls-1" d="M278.56614,74.14114A2.37525,2.37525,0,0,1,280.94151,71.77h9.44124a2.37051,2.37051,0,0,1,2.37541,2.37113v1.1712a2.37532,2.37532,0,0,1-2.37541,2.371h-9.44124a2.37038,2.37038,0,0,1-2.37537-2.371Z"/><path class="cls-1" d="M280.93727,82.414H290.387a2.37113,2.37113,0,0,1,2.37113,2.37113v1.1712a2.371,2.371,0,0,1-2.371,2.371h-9.45a2.371,2.371,0,0,1-2.371-2.371v-1.1712A2.37113,2.37113,0,0,1,280.93727,82.414Z"/><rect class="cls-1" x="303.40218" y="77.68335" width="16.55736" height="15.37469"/><line class="cls-3" x1="302.48756" y1="80.04869" x2="300.12222" y2="80.04869"/><line class="cls-3" x1="302.48756" y1="83.5967" x2="300.12222" y2="83.5967"/><line class="cls-3" x1="302.48756" y1="87.1447" x2="300.12222" y2="87.1447"/><line class="cls-3" x1="302.48756" y1="90.69271" x2="300.12222" y2="90.69271"/><line class="cls-3" x1="323.2395" y1="80.04869" x2="320.87416" y2="80.04869"/><line class="cls-3" x1="323.2395" y1="83.5967" x2="320.87416" y2="83.5967"/><line class="cls-3" x1="323.2395" y1="87.1447" x2="320.87416" y2="87.1447"/><line class="cls-3" x1="323.2395" y1="90.69271" x2="320.87416" y2="90.69271"/><circle class="cls-3" cx="290.39283" cy="101.33672" r="1.18267"/><circle class="cls-3" cx="297.48884" cy="101.33672" r="1.18267"/><circle class="cls-3" cx="319.95954" cy="101.33672" r="1.18267"/><rect class="cls-3" x="267.92213" y="74.13535" width="4.73067" height="11.82668"/><circle class="cls-4" cx="336.63977" cy="64.51316" r="24.68475"/><path d="M330.66051,48.74981a.9598.9598,0,0,0-.56775.2313,1.31262,1.31262,0,0,0-1.46111.13461c-.68958-.08813-.91373.0937-1.08355.30593-.15134-.00307-1.13283-.15323-1.58287.50806-1.131-.13182-1.48859.65532-1.08355,1.38926a.95316.95316,0,0,0,.06984,1.37172c-.191.374-.07259.77968.3776,1.27072a1.06956,1.06956,0,0,0,.53355,1.18575c-.07838.71944.6698,1.13776.89321,1.28684.08574.41919.26459.81477,1.11919,1.03348.14088.62481.65448.73264,1.15184.86375a5.30137,5.30137,0,0,0-3.04384,5.21775l-.24089.42309a5.09823,5.09823,0,0,0-.9288,7.70712,14.27174,14.27174,0,0,0,.72234,2.32031,5.67064,5.67064,0,0,0,3.57754,4.50616,12.12034,12.12034,0,0,0,3.42137,1.91335,5.72055,5.72055,0,0,0,4.20616,1.85926c.02117,0,.0427.00025.06387,0a5.71975,5.71975,0,0,0,4.20613-1.85926,12.12173,12.12173,0,0,0,3.42146-1.91335,5.67078,5.67078,0,0,0,3.57748-4.50616,14.27567,14.27567,0,0,0,.72228-2.32031,5.09855,5.09855,0,0,0-.92885-7.70761l-.24111-.423a5.302,5.302,0,0,0-3.04389-5.21776c.49738-.1311,1.011-.239,1.15184-.86366.85465-.21883,1.03344-.61444,1.11915-1.0336.22347-.149.97162-.56735.89327-1.28684A1.06968,1.06968,0,0,0,348.216,53.961c.45016-.491.56861-.89671.37751-1.27072a.95288.95288,0,0,0,.06987-1.37147c.40474-.73394.04766-1.521-1.08388-1.3892-.44992-.66129-1.43106-.51112-1.58282-.50806-.16981-.21224-.39378-.39406-1.08339-.30593a1.31265,1.31265,0,0,0-1.46108-.13467c-.61169-.47538-1.01637-.09432-1.47866.0497-.74048-.2383-.90986.08819-1.27363.22109-.80762-.168-1.05306.19789-1.44022.58418l-.45035-.00879a5.05424,5.05424,0,0,0-2.03762,2.88686,5.05186,5.05186,0,0,0-2.03617-2.88686l-.45029.00879c-.38768-.3863-.63316-.75223-1.44068-.58418-.36377-.1329-.53263-.45938-1.27363-.22109a2.84456,2.84456,0,0,0-.9111-.28109Z"/><path class="cls-5" d="M328.23533,51.86036a21.86419,21.86419,0,0,1,6.13959,4.09919c-.52706,2.08084-3.27671,2.17581-4.28209,2.11742a.75163.75163,0,0,0,.4385-.38113c-.25228-.17653-1.14685-.01863-1.77131-.36417a.58807.58807,0,0,0,.46424-.27106,5.13008,5.13008,0,0,1-1.59931-.65216.91446.91446,0,0,0,.65352-.1355,6.19406,6.19406,0,0,1-1.53055-.93161c.27316-.00653.56778-.00269.65343-.10162a5.87875,5.87875,0,0,1-1.22966-.98245c.38246.04542.54389.00631.63638-.05932a4.86335,4.86335,0,0,1-1.04907-1.13488.78332.78332,0,0,0,.731-.00845c-.1243-.27617-.65662-.439-.96315-1.08413.29894.02853.61593.06418.67939,0a3.16291,3.16291,0,0,0-.61032-1.194,11.0553,11.0553,0,0,0,1.565-.05081l-.39549-.39808a3.16625,3.16625,0,0,1,1.7283.16941c.2084-.162-.00368-.36683-.258-.576a6.35836,6.35836,0,0,1,1.44453.35581c.2318-.20617-.15039-.41226-.33534-.61831a3.7263,3.7263,0,0,1,1.51338.5844c.25067-.23662.01439-.4377-.15478-.64366a3.70928,3.70928,0,0,1,1.27267.80459c.11375-.15119.28892-.262.07739-.62679a3.21422,3.21422,0,0,1,1.01467.87238c.27171-.17044.16192-.4035.16338-.61831a10.0468,10.0468,0,0,1,1.10068,1.13493.948.948,0,0,0,.18913-.4997c1.08884,1.04053,2.62746,3.66137.39552,4.70057a21.09152,21.09152,0,0,0-6.68227-3.50618Z"/><path class="cls-5" d="M345.38242,51.86036a21.86687,21.86687,0,0,0-6.13922,4.09919c.52709,2.08084,3.27677,2.17581,4.28219,2.11742a.75113.75113,0,0,1-.43847-.38113c.25225-.17653,1.14682-.01863,1.77132-.36417a.58828.58828,0,0,1-.46433-.27106,5.13029,5.13029,0,0,0,1.59939-.65216.91441.91441,0,0,1-.65352-.1355,6.19556,6.19556,0,0,0,1.53052-.93161c-.27323-.00653-.56775-.00269-.65352-.10162a5.8732,5.8732,0,0,0,1.22969-.98245c-.38234.04542-.5438.00631-.63632-.05932a4.86361,4.86361,0,0,0,1.0491-1.13488.78325.78325,0,0,1-.73094-.00845c.12427-.27617.65655-.439.963-1.08413-.29885.02853-.61584.06418-.67927,0a3.16611,3.16611,0,0,1,.61045-1.19426,11.052,11.052,0,0,1-1.565-.05081l.39564-.398a3.16654,3.16654,0,0,0-1.72843.16935c-.20831-.162.00371-.36683.25794-.57589a6.35513,6.35513,0,0,0-1.44456.35573c-.23171-.20608.15051-.4122.33536-.61828a3.72841,3.72841,0,0,0-1.51338.58437c-.25064-.23659-.0143-.4377.15478-.64362a3.7083,3.7083,0,0,0-1.27258.80456c-.11375-.15119-.28889-.262-.07742-.62679a3.21306,3.21306,0,0,0-1.01464.87238c-.27175-.17044-.1619-.40347-.16338-.61822a10.02052,10.02052,0,0,0-1.10066,1.13485.94816.94816,0,0,1-.18918-.4997c-1.08889,1.04053-2.62758,3.66143-.39552,4.70057a21.067,21.067,0,0,1,6.68128-3.50637Z"/><path class="cls-6" d="M340.89365,73.04917a3.88887,3.88887,0,0,1-7.7418.03707c0-.01238,0-.02469,0-.03707a3.88887,3.88887,0,0,1,7.7418-.03707C340.89371,73.02448,340.89371,73.03679,340.89365,73.04917Z"/><path class="cls-6" d="M334.7829,63.00559c1.604,1.035,1.89312,3.38124.64586,5.24026s-3.55864,2.5272-5.16249,1.49215h0c-1.60392-1.03506-1.89308-3.3813-.64579-5.24041s3.55855-2.52708,5.16243-1.492Z"/><path class="cls-6" d="M339.11212,62.81819c-1.604,1.035-1.89311,3.3813-.64585,5.24025s3.55861,2.5272,5.16252,1.49215h0c1.604-1.03505,1.89311-3.3813.64585-5.24038s-3.55861-2.52711-5.16252-1.492Z"/><path class="cls-6" d="M326.76672,64.69779c1.73162-.45722.58461,7.05653-.82433,6.44A4.0292,4.0292,0,0,1,326.76672,64.69779Z"/><path class="cls-6" d="M346.77876,64.60408c-1.73183-.45706-.58458,7.05691.82446,6.44039a4.02967,4.02967,0,0,0-.82446-6.44039Z"/><path class="cls-6" d="M340.89507,59.00879c2.98844-.497,5.47511,1.25178,5.37479,4.44377C346.17153,64.67625,339.794,59.191,340.89507,59.00879Z"/><path class="cls-6" d="M332.63806,58.9151c-2.98869-.497-5.47514,1.25218-5.37476,4.44383C327.36151,64.58255,333.73906,59.09732,332.63806,58.9151Z"/><path class="cls-6" d="M336.93086,58.17076c-1.78363-.04574-3.49542,1.30389-3.4996,2.08666-.005.95117,1.41022,1.92507,3.51173,1.9498,2.1461.0151,3.51547-.77956,3.5224-1.7612.00786-1.11216-1.95184-2.2925-3.53453-2.27539Z"/><path class="cls-6" d="M337.03978,77.67563c1.555-.0669,3.64178.49336,3.64587,1.2365.0258.72166-1.89249,2.35225-3.749,2.32075-1.92279.08162-3.80807-1.55138-3.78338-2.11745-.02881-.8299,2.34117-1.47785,3.88654-1.4398Z"/><path class="cls-6" d="M331.296,73.2711c1.10709,1.31385,1.61181,3.6221.6879,4.30248-.87418.51954-2.997.3056-4.50581-1.82943-1.01745-1.79137-.8864-3.61449-.17189-4.14993,1.06841-.64108,2.71918.22477,3.9898,1.67688Z"/><path class="cls-6" d="M342.56205,72.85466c-1.19788,1.38205-1.865,3.90276-.99105,4.71459.83547.63069,3.07855.5425,4.73544-1.72187a4.28393,4.28393,0,0,0,.11276-4.73519c-1.02088-.77779-2.48636.21759-3.85714,1.742Z"/><path class="cls-7" d="M349.60822,56.9414a2.22771,2.22771,0,1,0,2.22771,2.228A2.22762,2.22762,0,0,0,349.60822,56.9414Zm0,4.08451a1.85648,1.85648,0,1,1,1.85648-1.85648A1.85627,1.85627,0,0,1,349.60822,61.02591Z"/><path class="cls-7" d="M348.67067,57.94971h1.2844a.654.654,0,0,1,.69733.656.587.587,0,0,1-.377.59833v.0064c.2569.06664.32991.31645.34691.55733a1.30011,1.30011,0,0,0,.10024.56373h-.52368a2.60654,2.60654,0,0,1-.08362-.57079c-.0365-.25045-.13323-.36-.39684-.36h-.524v.93081h-.52371Zm.52371,1.0775h.57364c.23384,0,.36036-.10056.36036-.3408,0-.22933-.12652-.32991-.36036-.32991h-.57364Z"/><path class="cls-8" d="M142.86916,78.025,102.5445,76.8759l-51.1017.50274s-2.78347,11.27588,2.78347,11.99409c6.70888.79,83.4328.43093,83.4328.43093S144.22522,88.22359,142.86916,78.025Z"/><path class="cls-9" d="M120.46711,108.90417H73.49586a.35464.35464,0,1,1,0-.70929h46.97126a.35464.35464,0,0,1,0,.70929Z"/><path class="cls-9" d="M108.18606,108.90417H85.77777a.35381.35381,0,0,1-.31139-.52245l9.69475-17.95535a1.877,1.877,0,0,1,1.63655-.99473,2.03561,2.03561,0,0,1,1.78187.98089l9.91618,17.96573a.35488.35488,0,0,1-.30966.52591Zm-21.814-.70929h21.21375L97.96541,90.76544a1.29256,1.29256,0,0,0-1.11583-.62452H96.815a1.17584,1.17584,0,0,0-1.02933.62106Z"/><path class="cls-9" d="M142.80274,78.59511H50.15425a.35464.35464,0,1,1,0-.70929h92.64849a.35464.35464,0,0,1,0,.70929Z"/><path class="cls-9" d="M138.85323,90.01464H54.10464a4.48662,4.48662,0,0,1-3.32846-1.4376,3.73457,3.73457,0,0,1-.97484-2.90116l-.00173-54.54938A3.71578,3.71578,0,0,1,50.777,28.2582a4.48472,4.48472,0,0,1,3.3276-1.4376h84.74859a4.31027,4.31027,0,0,1,4.30416,4.30589v54.584A4.361,4.361,0,0,1,138.85323,90.01464ZM54.10464,27.52988a3.78125,3.78125,0,0,0-2.80341,1.20406,3.03708,3.03708,0,0,0-.79406,2.35795l.00173,54.61858a3.06207,3.06207,0,0,0,.79146,2.39082,3.78176,3.78176,0,0,0,2.80428,1.20406h84.74859a3.64278,3.64278,0,0,0,3.59488-3.59488v-54.584a3.6,3.6,0,0,0-3.59488-3.59661Z"/><path class="cls-10" d="M156.451,104.47644a4.06741,4.06741,0,0,1-4.06741,4.06741h-14.8539a4.06741,4.06741,0,0,1-4.06741-4.06741V69.55678a4.06741,4.06741,0,0,1,4.06741-4.06741h14.8539a4.06741,4.06741,0,0,1,4.06741,4.06741Z"/><path class="cls-9" d="M152.38331,108.899H137.5298a4.42766,4.42766,0,0,1-4.4218-4.4218V69.556a4.42766,4.42766,0,0,1,4.4218-4.4218h14.85351a4.42766,4.42766,0,0,1,4.4218,4.4218v34.92116A4.42766,4.42766,0,0,1,152.38331,108.899ZM137.5298,65.84351a3.7174,3.7174,0,0,0-3.71251,3.71251v34.92116a3.7174,3.7174,0,0,0,3.71251,3.71251h14.85351a3.7174,3.7174,0,0,0,3.71251-3.71251V69.556a3.7174,3.7174,0,0,0-3.71251-3.71251Z"/><path class="cls-8" d="M156.688,101.90794l-10.19088-.711-12.87685.316s-.71111,4.18695,1.2522,6.04049c1.04865,1.81693,19.29112.57959,19.29112.57959S157.004,107.67487,156.688,101.90794Z"/><path class="cls-9" d="M144.99635,107.47694a1.77668,1.77668,0,1,1,1.77668-1.77668A1.77934,1.77934,0,0,1,144.99635,107.47694Zm0-2.84407a1.06739,1.06739,0,1,0,1.06739,1.06739A1.06908,1.06908,0,0,0,144.99635,104.63288Z"/><path class="cls-9" d="M156.45047,103.36827H133.46264a.35464.35464,0,0,1,0-.70929h22.98783a.35464.35464,0,0,1,0,.70929Z"/><path class="cls-9" d="M152.38331,108.899H137.5298a4.42766,4.42766,0,0,1-4.4218-4.4218V69.556a4.42766,4.42766,0,0,1,4.4218-4.4218h14.85351a4.42766,4.42766,0,0,1,4.4218,4.4218v34.92116A4.42766,4.42766,0,0,1,152.38331,108.899ZM137.5298,65.84351a3.7174,3.7174,0,0,0-3.71251,3.71251v34.92116a3.7174,3.7174,0,0,0,3.71251,3.71251h14.85351a3.7174,3.7174,0,0,0,3.71251-3.71251V69.556a3.7174,3.7174,0,0,0-3.71251-3.71251Z"/><path class="cls-10" d="M60.77565,108.52413H31.50173a3.47436,3.47436,0,0,1-3.44871-3.44871V55.02905a3.47436,3.47436,0,0,1,3.44871-3.44871H60.77565a3.47436,3.47436,0,0,1,3.44871,3.44871v50.04637A3.5279,3.5279,0,0,1,60.77565,108.52413Z"/><path class="cls-9" d="M60.7754,108.87822H31.50172a3.80748,3.80748,0,0,1-3.80334-3.80247V55.02947a3.809,3.809,0,0,1,3.80334-3.8042H60.7754a3.809,3.809,0,0,1,3.80334,3.8042v50.04628A3.87192,3.87192,0,0,1,60.7754,108.87822ZM31.50172,51.93456a3.13559,3.13559,0,0,0-3.094,3.09491v50.04628a3.13524,3.13524,0,0,0,3.094,3.09318H60.7754a3.16164,3.16164,0,0,0,3.09491-3.107l-.00086-50.03244a3.13559,3.13559,0,0,0-3.094-3.09491Z"/><path class="cls-8" d="M63.26192,100.98509,47.863,100.26327l-19.48921.32081s-1.04264,6.89741,1.04264,7.29843c2.56648.48121,31.84039.24061,31.84039.24061S63.74314,107.24089,63.26192,100.98509Z"/><path class="cls-9" d="M46.09834,107.27454a2.03877,2.03877,0,1,1,2.03877-2.0379A2.04162,2.04162,0,0,1,46.09834,107.27454Zm0-3.36825a1.32948,1.32948,0,1,0,1.32948,1.33035A1.33118,1.33118,0,0,0,46.09834,103.90629Z"/><path class="cls-9" d="M63.90318,101.98083H28.13347a.35464.35464,0,1,1,0-.70929H63.90318a.35464.35464,0,1,1,0,.70929Z"/><path class="cls-9" d="M60.7754,108.87822H31.50172a3.80748,3.80748,0,0,1-3.80334-3.80247V55.02947a3.809,3.809,0,0,1,3.80334-3.8042H60.7754a3.809,3.809,0,0,1,3.80334,3.8042v50.04628A3.87192,3.87192,0,0,1,60.7754,108.87822ZM31.50172,51.93456a3.13559,3.13559,0,0,0-3.094,3.09491v50.04628a3.13524,3.13524,0,0,0,3.094,3.09318H60.7754a3.16164,3.16164,0,0,0,3.09491-3.107l-.00086-50.03244a3.13559,3.13559,0,0,0-3.094-3.09491Z"/><path class="cls-11" d="M96.04193,60.27889s43.68628-25.03544,107.29138-26.40127c29.33337-.62989,64.58881,6.92327,81.46564,22.37211"/><polygon class="cls-9" points="279.802 56.998 279.793 56.037 284.527 56.002 284.145 51.283 285.103 51.207 285.566 56.953 279.802 56.998"/><g id="Layer_1-2" data-name="Layer 1"><path class="cls-12" d="M202.9307,18.72612a12.36216,12.36216,0,0,0-11.12946,7.05233,6.40933,6.40933,0,0,0-9.146,4.62809,9.563,9.563,0,0,0,3.0854,18.62257h29.64183a8.74756,8.74756,0,0,0,8.70523-8.81542,8.84133,8.84133,0,0,0-8.81542-8.81542V31.0677A12.25176,12.25176,0,0,0,202.9307,18.72612Z"/></g></svg>